<?xml version="1.0" encoding="iso-8859-1"?>
<!-- Uploaded to: SVG Repo, www.svgrepo.com, Generator: SVG Repo Mixer Tools -->
<svg fill="#000000" version="1.1" id="Capa_1" xmlns="http://www.w3.org/2000/svg" xmlns:xlink="http://www.w3.org/1999/xlink" 
	 viewBox="0 0 64 64" xml:space="preserve">
<g>
	<path d="M27.993,30.887c-0.034-0.303-0.205-0.573-0.463-0.735l-7.929-4.955l-8.938-7.944C10.481,17.09,10.245,17,10,17H0v2h9.62
		l8.716,7.748c0.042,0.037,0.087,0.071,0.134,0.101l6.935,4.333l-5.013,5.012l-8.877,4.932c-0.108,0.06-0.204,0.139-0.283,0.234
		L6.531,47H0v2h7c0.297,0,0.578-0.132,0.769-0.36l4.88-5.856l8.837-4.91c0.081-0.045,0.156-0.101,0.222-0.167l4.118-4.118
		l-0.803,12.039l-6.812,8.758C18.074,54.562,18,54.778,18,55v9h2v-8.657l6.789-8.729c0.123-0.157,0.195-0.348,0.209-0.547l1-15
		l-0.025-0.002C27.977,31.005,28,30.948,27.993,30.887z"/>
	<path d="M62,13c-0.334,0-0.647,0.167-0.832,0.445L59.465,16H51c-0.127,0-0.253,0.024-0.371,0.071l-10,4
		c-0.292,0.117-0.512,0.364-0.594,0.667c-0.023,0.087-0.009,0.174-0.009,0.262H40v11.882l-2.447,1.224
		c-0.345,0.172-0.56,0.528-0.553,0.913c0.002,0.112,0.028,0.219,0.065,0.321l-0.005,0.002l3.594,9.882l-1.268,0.986
		c-0.262,0.204-0.405,0.525-0.384,0.856c0.004,0.067,0.02,0.132,0.038,0.196l-0.004,0.001L42,58.134V64h2v-6
		c0-0.089-0.012-0.177-0.035-0.263l-2.357-8.641l9.888,5.768C51.649,54.953,51.823,55,52,55h12v-2H52.27l-10.489-6.119l7.833-6.092
		c0.276-0.215,0.42-0.559,0.379-0.906c-0.041-0.348-0.261-0.649-0.579-0.793l-9.092-4.133l8.125-4.062
		c0.267-0.134,0.462-0.381,0.528-0.673c0.065-0.292-0.002-0.599-0.187-0.835l-6.184-7.951L51.192,18H60
		c0.334,0,0.646-0.167,0.832-0.445L62.535,15H64v-2H62z M47.081,40.226l-4.769,3.708l-2.56-7.039L47.081,40.226z M46.462,29.651
		L42,31.882v-7.968L46.462,29.651z"/>
	<path d="M7.707,53.293c-0.391-0.391-1.023-0.391-1.414,0l-4,4C2.105,57.48,2,57.735,2,58v6h2v-5.586l3-3l2,2V60h2v-3
		c0-0.265-0.106-0.52-0.293-0.707L7.707,53.293z"/>
	<path d="M20.419,43.186l-7,5C13.156,48.374,13,48.677,13,49v5h2v-4.485l6.581-4.701L20.419,43.186z"/>
	<path d="M47.707,55.293l-1.414,1.414L49,59.414V64h2v-5c0-0.265-0.106-0.52-0.293-0.707L47.707,55.293z"/>
	<rect x="8" y="38" width="2" height="2"/>
	<rect x="4" y="38" width="2" height="2"/>
	<rect y="38" width="2" height="2"/>
	<rect x="12" y="34" width="2" height="2"/>
	<rect x="8" y="34" width="2" height="2"/>
	<rect x="4" y="34" width="2" height="2"/>
	<rect x="60" y="46" width="2" height="2"/>
	<rect x="56" y="46" width="2" height="2"/>
	<rect x="52" y="46" width="2" height="2"/>
	<rect x="62" y="42" width="2" height="2"/>
	<rect x="58" y="42" width="2" height="2"/>
	<rect x="54" y="42" width="2" height="2"/>
	<path d="M2,27h2c0-1.103,0.897-2,2-2v-2c-0.732,0-1.409,0.212-2,0.556V21H2v2.556C1.409,23.212,0.732,23,0,23v2
		C1.102,25,2,25.897,2,27z"/>
	<path d="M62.105,22.553l-1.794,3.589l-3.554,0.888c-0.312,0.078-0.567,0.301-0.687,0.599l-2,5
		c-0.123,0.308-0.085,0.657,0.101,0.932C54.358,33.835,54.668,34,55,34h9v-2h-7.523l1.262-3.154l3.504-0.876
		c0.283-0.071,0.521-0.262,0.652-0.523L63.618,24H64v-2h-1C62.621,22,62.275,22.214,62.105,22.553z"/>
	<path d="M1,9h19c0.553,0,1-0.448,1-1c0-3.309-2.691-6-6-6c-0.499,0-1.002,0.067-1.501,0.201C12.018,0.795,10.048,0,8,0
		C3.589,0,0,3.589,0,8C0,8.552,0.447,9,1,9z M8,2c1.699,0,3.329,0.732,4.471,2.009c0.276,0.309,0.718,0.416,1.104,0.267
		C15.949,3.365,18.317,4.842,18.873,7H2.083C2.56,4.166,5.032,2,8,2z"/>
	<path d="M50,13c0-3.309-2.691-6-6-6c-0.499,0-1.002,0.067-1.501,0.201C41.018,5.795,39.048,5,37,5c-4.411,0-8,3.589-8,8
		c0,0.552,0.447,1,1,1h19C49.553,14,50,13.552,50,13z M31.083,12C31.56,9.166,34.032,7,37,7c1.699,0,3.329,0.732,4.471,2.009
		c0.276,0.309,0.718,0.417,1.104,0.267c2.374-0.912,4.743,0.567,5.299,2.724H31.083z"/>
</g>
</svg>