<svg xmlns="http://www.w3.org/2000/svg" width="457.386" height="313.594" viewBox="0 0 457.386 313.594">
  <g id="cracked-ground-between-houses-svgrepo-com" transform="translate(0 -71.895)">
    <g id="Group_72" data-name="Group 72">
      <path id="Path_49" data-name="Path 49" d="M453.99,132.192,441.7,122.626c-.957-.742-.78-1.976-.78-2.634V98.412a10.011,10.011,0,0,0-10-10H417.318a10.009,10.009,0,0,0-9.713,7.664l-28.128-21.9a11.41,11.41,0,0,0-13.684,0l-74.514,58.018c-4.344,3.383-3.427,7.3-3.043,8.419s2.067,4.773,7.573,4.773h4.565A1.633,1.633,0,0,1,302,147.134v60c0,3.167-1.663,3.7-1.663,3.7a10.258,10.258,0,0,0-6.671,2.977l-38.547,42.966a7.266,7.266,0,0,0-1.266,6.723l15.929,42.44a4.5,4.5,0,0,1-2.188,5.5l-32.952,16.11a8.191,8.191,0,0,0-4.059,5.729L228.709,349.3c-.256,2.184-1.684,2.648-3.175,1.03L205.1,328.145a3,3,0,0,1,.791-4.876l27.546-15.217a3.51,3.51,0,0,0,1.194-5.2l-29.123-41.228a22.387,22.387,0,0,1-3.081-7.191l-7.821-39.674a5.078,5.078,0,0,0-4.773-3.925h-5.874a3.5,3.5,0,0,1-3.747-2.784v-61.5s0-1.166,1.08-1.166h5.111c5.505,0,7.188-3.653,7.573-4.773s1.3-5.036-3.043-8.419l-12.287-9.566c-.957-.742-.78-1.976-.78-2.634V98.411a10.011,10.011,0,0,0-10-10h-13.6a10.009,10.009,0,0,0-9.713,7.664l-28.128-21.9a11.41,11.41,0,0,0-13.684,0L28.227,132.192c-4.344,3.383-3.427,7.3-3.043,8.419s2.067,4.773,7.573,4.773h4.565a1.633,1.633,0,0,1,1.626,1.749V208.3c0,.941.185,2.534-1.981,2.534H4a4.012,4.012,0,0,0-4,4V373.689a4.012,4.012,0,0,0,4,4h7a4.012,4.012,0,0,0,4-4V269.133c0-1.75,1.962-1.755,1.962-1.755h173a2.543,2.543,0,0,1,2.028,1.1l20.727,29.343a3.509,3.509,0,0,1-1.193,5.2l-29.6,16.354a3,3,0,0,0-.792,4.876l55.508,60.271c1.49,1.618,2.919,1.154,3.174-1.03l4.718-40.333a8.185,8.185,0,0,1,4.059-5.729l37.839-18.5a4.5,4.5,0,0,0,2.188-5.5L271.33,267.378H437.744V373.689a4.012,4.012,0,0,0,4,4h7a4.012,4.012,0,0,0,4-4V214.834a4.012,4.012,0,0,0-4-4h-2.926c-2.875,0-2.547-2.451-2.547-2.451V146.55s0-1.166,1.08-1.166h5.111c5.505,0,7.188-3.653,7.573-4.773S458.335,135.575,453.99,132.192Zm-354.754,57c0-.039-.015-3.987,2.439-6.468,1.572-1.59,4.062-2.4,7.4-2.4,9.6,0,10.722,6.293,10.757,8.929-.027,2.22-.05,5.852-.05,8.072v10.889s.429,2.618-2.738,2.618H101.962c-2.917,0-2.587-2.284-2.587-2.284V197.328C99.376,195.066,99.312,191.386,99.236,189.19Zm57.027-88.057c0-.844.866-.722.866-.722h7.843a.929.929,0,0,1,.9,1.034v8.469c0,1.156-.786.644-.786.644L157.19,104a2.173,2.173,0,0,1-.928-1.954S156.263,101.363,156.263,101.133ZM46.955,135.4c-.58-.438-1.492-1.264.157-2.7l60.137-46.823a3.723,3.723,0,0,1,2.331-.9,3.2,3.2,0,0,1,2.251.842L173.1,133.517c.858.784.153,1.174-.234,1.42a10,10,0,0,0-4.655,8.448v64.666s.33,2.784-3.586,2.784H135.3c-3.583,0-3.512-2.951-3.512-2.951V197.328c0-2.18.022-5.747.049-7.925a22.054,22.054,0,0,0-6.023-14.842c-4.086-4.137-9.716-6.234-16.733-6.234-8.414,0-13.391,3.324-16.086,6.112-5.884,6.09-5.78,14.194-5.749,15.1.074,2.148.134,5.644.134,7.791v11.639s.253,1.868-2.08,1.868H53.378c-3,0-2.435-2.2-2.435-2.2V143.385A9.988,9.988,0,0,0,46.955,135.4ZM15,229.834a4.012,4.012,0,0,1,4-4H177.505a5.08,5.08,0,0,1,4.774,3.925l4.709,23.889s.329,1.73-2.421,1.73H17.629c-3.063,0-2.629-2.432-2.629-2.432V229.834Zm404.317-128.7c0-.844.866-.722.866-.722h7.843a.929.929,0,0,1,.9,1.034v8.469c0,1.156-.785.644-.785.644L420.244,104a2.173,2.173,0,0,1-.928-1.954S419.317,101.363,419.317,101.133ZM362.29,189.19c0-.039-.015-3.987,2.439-6.468,1.572-1.59,4.062-2.4,7.4-2.4,9.6,0,10.722,6.293,10.757,8.929-.027,2.22-.05,5.852-.05,8.072v11.431a1.828,1.828,0,0,1-1.958,2.076H365.066c-2.875,0-2.637-2.139-2.637-2.139V197.328C362.43,195.066,362.366,191.386,362.29,189.19Zm-85.766,66.188,23.833-26.566a10.253,10.253,0,0,1,6.671-2.977H433.741a4.012,4.012,0,0,1,4,4v25.544H276.524Zm120.605-44.544c-2.688,0-2.292-1.951-2.292-1.951V197.327c0-2.18.022-5.747.049-7.925a22.055,22.055,0,0,0-6.023-14.842c-4.086-4.137-9.716-6.234-16.733-6.234-8.414,0-13.391,3.324-16.086,6.112-5.884,6.09-5.78,14.194-5.749,15.1.074,2.148.134,5.644.134,7.791v11.494s.262,2.013-2.551,2.013h-31.5c-2.375,0-2.381-1.951-2.381-1.951v-65.5a9.991,9.991,0,0,0-3.989-7.987c-.58-.438-1.492-1.264.157-2.7L370.3,85.871a3.723,3.723,0,0,1,2.331-.9,3.2,3.2,0,0,1,2.251.842l61.273,47.708c.858.784.153,1.174-.234,1.42a10,10,0,0,0-4.655,8.448v65.5s.047,1.951-2.391,1.951Z"/>
      <path id="Path_50" data-name="Path 50" d="M47.145,283.874A15.826,15.826,0,1,0,62.971,299.7,15.845,15.845,0,0,0,47.145,283.874Z"/>
      <path id="Path_51" data-name="Path 51" d="M106.43,274.048a15.826,15.826,0,1,0,15.827,15.826A15.844,15.844,0,0,0,106.43,274.048Z"/>
      <path id="Path_52" data-name="Path 52" d="M145.007,297.6a15.826,15.826,0,1,0,15.826,15.826A15.845,15.845,0,0,0,145.007,297.6Z"/>
    </g>
    <circle id="Ellipse_5" data-name="Ellipse 5" cx="9.826" cy="9.826" r="9.826" transform="translate(302.504 299.701)" stroke="#000" stroke-miterlimit="10" stroke-width="1"/>
    <circle id="Ellipse_6" data-name="Ellipse 6" cx="9.826" cy="9.826" r="9.826" transform="translate(362.808 280.048)" stroke="#000" stroke-miterlimit="10" stroke-width="1"/>
    <circle id="Ellipse_7" data-name="Ellipse 7" cx="9.826" cy="9.826" r="9.826" transform="translate(402.116 309.527)" stroke="#000" stroke-miterlimit="10" stroke-width="1"/>
  </g>
</svg>
