<svg xmlns="http://www.w3.org/2000/svg" width="186.283" height="177.383" viewBox="0 0 186.283 177.383">
  <g id="Group_17" data-name="Group 17" transform="translate(0.5 0.5)">
    <path id="Path_13" data-name="Path 13" d="M183.04,121.562H145.729c-2.056,0-1.9-1.76-1.9-1.76V70.657a1.151,1.151,0,0,1,1.3-1.229h5.281a4.028,4.028,0,0,0,4.034-2.68,4.228,4.228,0,0,0-1.588-4.672L142.7,53.909a1.88,1.88,0,0,1-.565-1.326V34.152a5.25,5.25,0,0,0-5.159-5.325H124.9a5.25,5.25,0,0,0-5.159,5.325v.443c0,1.023-.689.31-.689.31L97.091,17.256a5.646,5.646,0,0,0-6.966,0L34.359,62.075a4.228,4.228,0,0,0-1.589,4.672,4.028,4.028,0,0,0,4.034,2.68h5.675c1,0,.9,1.114.9,1.114v49.81s.162,1.211-1.577,1.211H2.243A2.287,2.287,0,0,0,0,123.877v66.245a2.287,2.287,0,0,0,2.243,2.315H4.486a2.287,2.287,0,0,0,2.243-2.315v-59.3a2.287,2.287,0,0,1,2.243-2.315H176.31a2.287,2.287,0,0,1,2.243,2.315v59.3a2.287,2.287,0,0,0,2.243,2.315h2.243a2.287,2.287,0,0,0,2.243-2.315V123.877A2.287,2.287,0,0,0,183.04,121.562ZM126.468,36.187a.4.4,0,0,1,.391-.414H134.9a.482.482,0,0,1,.5.53v10.12c0,.637-.342.321-.342.321l-8.38-7.182a.682.682,0,0,1-.213-.467S126.468,36.913,126.468,36.187ZM85.161,104.351c0-.041-.03-4.177,2.3-6.669a7.472,7.472,0,0,1,5.78-2.106c8.337,0,8.768,7.392,8.771,8.85-.013,1.031-.023,2.717-.023,3.748l0,12s.074,1.386-1.58,1.386H86.365c-1.2,0-1.14-.953-1.14-.953V108.173C85.225,107.113,85.2,105.4,85.161,104.351Zm25.089,17.21a1.407,1.407,0,0,1-1.53-1.439V108.174c0-1.007.01-2.654.022-3.662.009-.7-.044-6.988-4.411-11.552-2.749-2.873-6.48-4.331-11.088-4.331a13.908,13.908,0,0,0-10.619,4.226c-4.3,4.591-4.212,11.017-4.188,11.735.032.965.06,2.605.06,3.583v12.474a.891.891,0,0,1-.977.915H51.452a1.225,1.225,0,0,1-1.339-1.27V67.807c0-2.681-2.013-4.516-4.431-5.273-.679-.213-.014-.744-.014-.744L92.537,24.121a1.369,1.369,0,0,1,2.091-.041l46.736,37.561s1.1.738-.07.934a5.225,5.225,0,0,0-4.191,5.231v51.959a1.668,1.668,0,0,1-1.841,1.8Z" transform="translate(0 -16.054)" fill="none" stroke="#a9a9a9" stroke-linecap="round" stroke-linejoin="round" stroke-width="1"/>
    <path id="Path_14" data-name="Path 14" d="M207.286,288.037H187.422a10.985,10.985,0,0,0-4.136.822l-12.54,6.4a2.081,2.081,0,0,1-2.428-.187l-6.274-7.738c-.45-.555-1.936-.924-3.3-.82l-17.46,1.331c-1.368.1-2.674-.284-2.9-.862l-3.6-9.062c-.229-.578-1.111-.672-1.959-.207L101.16,295.064a1.821,1.821,0,0,1-2.275-.176l-10.38-14.452a1.984,1.984,0,0,0-2.376-.211l-16.248,8.007a11.391,11.391,0,0,1-4.169.81H44.124c-1.389,0-2.526.48-2.526,1.067v.427c0,.587,1.137,1.067,2.526,1.067H68.5a11.39,11.39,0,0,0,4.169-.81l10.867-5.355a1.984,1.984,0,0,1,2.376.211L96.5,300.389a1.821,1.821,0,0,0,2.275.176l30.365-16.638c.848-.465,1.73-.371,1.959.207l2.313,5.83c.229.579,1.536.967,2.9.863l18.377-1.4c1.367-.1,2.853.265,3.3.82l8.092,9.983a2.082,2.082,0,0,0,2.428.187l17.622-9a10.993,10.993,0,0,1,4.136-.822h17.011c1.389,0,2.526-.48,2.526-1.067V289.1C209.812,288.517,208.675,288.037,207.286,288.037Z" transform="translate(-32.725 -126.533)" fill="none" stroke="#a9a9a9" stroke-linecap="round" stroke-linejoin="round" stroke-width="1"/>
  </g>
</svg>
