<?xml version="1.0" encoding="iso-8859-1"?>
<!-- Uploaded to: SVG Repo, www.svgrepo.com, Generator: SVG Repo Mixer Tools -->
<svg fill="#000000" version="1.1" id="Capa_1" xmlns="http://www.w3.org/2000/svg" xmlns:xlink="http://www.w3.org/1999/xlink" 
	 viewBox="0 0 64 64" xml:space="preserve">
<g>
	<path d="M54.707,8.293C54.519,8.106,54.266,8,54,8h-4.586l-2.707-2.707c-0.391-0.391-1.023-0.391-1.414,0L42.756,7.83
		C41.761,3.357,37.768,0,33,0c-4.741,0-8.759,3.299-9.759,7.827l-2.534-2.534c-0.391-0.391-1.023-0.391-1.414,0L16.586,8H10
		C9.734,8,9.48,8.106,9.293,8.293L5.586,12H0v2h64v-2h-5.586L54.707,8.293z M46,7.414l2.293,2.293C48.48,9.894,48.734,10,49,10
		h4.586l2,2H32.414l1-1H37c0.266,0,0.519-0.106,0.707-0.293L39.5,8.914l1.793,1.793c0.391,0.391,1.023,0.391,1.414,0L46,7.414z
		 M33,2c3.348,0,6.218,2.07,7.409,4.995l-0.202-0.202c-0.391-0.391-1.023-0.391-1.414,0L36.586,9H33
		c-0.266,0-0.52,0.106-0.707,0.293L30,11.586l-3.293-3.293C26.519,8.106,26.266,8,26,8h-0.74C26.153,4.513,29.299,2,33,2z
		 M10.414,10H17c0.266,0,0.519-0.106,0.707-0.293L20,7.414l2.293,2.293C22.48,9.894,22.734,10,23,10h2.586l2,2H8.414L10.414,10z"/>
	<path d="M50,3c0,1.654,1.346,3,3,3h3V4h-3c-0.552,0-1-0.448-1-1c0-1.654-1.346-3-3-3h-6v2h6C49.552,2,50,2.448,50,3z"/>
	<rect x="58" y="4" width="2" height="2"/>
	<rect x="62" y="4" width="2" height="2"/>
	<path d="M7,7c0-0.552,0.448-1,1-1h6c1.654,0,3-1.346,3-3c0-0.552,0.448-1,1-1h5V0h-5c-1.654,0-3,1.346-3,3c0,0.552-0.448,1-1,1H8
		C6.346,4,5,5.346,5,7c0,0.552-0.448,1-1,1H0v2h4C5.654,10,7,8.654,7,7z"/>
	<rect width="2" height="2"/>
	<rect x="4" width="2" height="2"/>
	<rect x="8" width="2" height="2"/>
	<path d="M57.593,62c-1.314,0-1.914-0.374-2.674-0.849C54.055,60.612,53.074,60,51.185,60c-1.888,0-2.867,0.612-3.731,1.152
		C46.696,61.626,46.097,62,44.783,62c-1.312,0-1.91-0.374-2.668-0.848C41.251,60.612,40.272,60,38.386,60
		c-1.887,0-2.866,0.612-3.73,1.152C33.897,61.626,33.299,62,31.985,62c-1.312,0-1.911-0.374-2.669-0.848
		C28.452,60.612,27.474,60,25.587,60c-1.887,0-2.866,0.612-3.731,1.152C21.099,61.626,20.5,62,19.187,62
		c-1.312,0-1.911-0.374-2.669-0.848C15.654,60.612,14.676,60,12.789,60c-1.886,0-2.865,0.612-3.729,1.152
		C8.303,61.626,7.705,62,6.393,62c-1.311,0-1.909-0.374-2.666-0.848C2.863,60.612,1.885,60,0,60v2c1.311,0,1.909,0.374,2.666,0.848
		C3.529,63.388,4.508,64,6.393,64c1.886,0,2.865-0.612,3.729-1.152C10.879,62.374,11.477,62,12.789,62s1.911,0.374,2.669,0.848
		C16.322,63.388,17.301,64,19.187,64s2.865-0.612,3.73-1.152C23.675,62.374,24.273,62,25.587,62c1.312,0,1.911,0.374,2.669,0.848
		C29.12,63.388,30.099,64,31.985,64c1.887,0,2.866-0.612,3.73-1.152C36.474,62.374,37.072,62,38.386,62
		c1.312,0,1.911,0.374,2.669,0.848C41.919,63.388,42.897,64,44.783,64c1.888,0,2.867-0.612,3.731-1.152
		C49.272,62.374,49.872,62,51.185,62c1.316,0,1.915,0.374,2.675,0.849C54.725,63.388,55.705,64,57.593,64
		c1.889,0,2.869-0.612,3.733-1.151C62.086,62.374,62.685,62,64,62v-2c-1.888,0-2.868,0.612-3.732,1.151
		C59.508,61.626,58.908,62,57.593,62z"/>
	<path d="M33.593,21c-1.314,0-1.914-0.374-2.674-0.849C30.055,19.612,29.076,19,27.187,19c-1.888,0-2.865,0.612-3.73,1.152
		C22.699,20.626,22.103,21,20.79,21c-1.312,0-1.904-0.374-2.661-0.848C17.264,19.612,16.298,19,14.412,19
		c-1.887,0-2.84,0.612-3.705,1.152C9.949,20.626,9.402,21,8.089,21c-1.312,0-1.808-0.374-2.566-0.848C4.659,19.612,3,19,2,19v2
		c1,0,1.705,0.374,2.462,0.848C5.327,22.388,6.099,23,7.985,23c1.887,0,2.866-0.612,3.73-1.152C12.474,21.374,13.072,21,14.386,21
		c1.312,0,1.911,0.374,2.669,0.848C17.919,22.388,18.897,23,20.783,23c1.888,0,2.867-0.612,3.731-1.152
		C25.272,21.374,25.872,21,27.185,21c1.316,0,1.915,0.374,2.675,0.849C30.725,22.388,31.705,23,33.593,23
		c1.889,0,2.869-0.612,3.733-1.151C38.086,21.374,38.685,21,40,21v-2c-1.888,0-2.868,0.612-3.732,1.151
		C35.508,20.626,34.909,21,33.593,21z"/>
	<path d="M60,39c0.375,0,0.718-0.209,0.89-0.542c0.171-0.334,0.142-0.734-0.076-1.039l-15-21c-0.253-0.354-0.705-0.504-1.119-0.371
		C44.281,16.181,44,16.565,44,17v24h-2.101c-0.363-1.78-1.683-3.197-3.39-3.742C38.813,36.739,39,36.144,39,35.5
		c0-1.93-1.57-3.5-3.5-3.5S32,33.57,32,35.5c0,1.206,0.613,2.272,1.545,2.901c-0.719,0.69-1.237,1.586-1.444,2.599h-0.152
		C31.435,34.299,25.83,29,19,29v2c6.065,0,11,4.935,11,11h0.006c0,0.106,0.011,0.213,0.045,0.316l1.455,4.365
		c-0.287,0.152-0.549,0.314-0.8,0.471C29.949,47.626,29.402,48,28.089,48c-1.312,0-1.808-0.374-2.566-0.848
		C24.659,46.612,23,46,22,46v2c1,0,1.705,0.374,2.462,0.848C25.327,49.388,26.099,50,27.985,50c1.887,0,2.866-0.612,3.73-1.152
		C32.474,48.374,33.072,48,34.386,48c1.312,0,1.911,0.374,2.669,0.848C37.919,49.388,38.897,50,40.783,50
		c1.888,0,2.867-0.612,3.731-1.152C45.272,48.374,45.872,48,47.185,48c1.316,0,1.915,0.374,2.675,0.849
		C50.725,49.388,51.705,50,53.593,50c1.889,0,2.869-0.612,3.733-1.151C58.086,48.374,58.685,48,60,48v-2
		c-0.499,0-0.932,0.045-1.319,0.118l1.267-3.801c0.103-0.305,0.051-0.641-0.137-0.901C59.623,41.154,59.321,41,59,41H46v-2H60z
		 M46,20.12L58.057,37H46V20.12z M35.5,34c0.827,0,1.5,0.673,1.5,1.5S36.327,37,35.5,37S34,36.327,34,35.5S34.673,34,35.5,34z
		 M37,39c1.302,0,2.402,0.839,2.816,2h-5.631C34.598,39.839,35.698,39,37,39z M56.219,47.181C55.482,47.641,54.88,48,53.593,48
		c-1.314,0-1.914-0.374-2.674-0.849C50.055,46.612,49.076,46,47.187,46c-1.888,0-2.865,0.612-3.73,1.152
		C42.699,47.626,42.103,48,40.79,48c-1.312,0-1.904-0.374-2.661-0.848C37.264,46.612,36.298,46,34.412,46
		c-0.37,0-0.696,0.029-1.001,0.071L32.388,43h25.225L56.219,47.181z"/>
	<path d="M24.79,54c-1.312,0-1.904-0.374-2.661-0.848C21.264,52.612,20.298,52,18.412,52c-1.887,0-2.84,0.612-3.705,1.152
		C13.949,53.626,13.402,54,12.089,54c-1.312,0-1.808-0.374-2.566-0.848C8.659,52.612,7,52,6,52v2c1,0,1.705,0.374,2.462,0.848
		C9.327,55.388,10.099,56,11.985,56c1.887,0,2.866-0.612,3.73-1.152C16.474,54.374,17.072,54,18.386,54
		c1.312,0,1.911,0.374,2.669,0.848C21.919,55.388,22.897,56,24.783,56c1.888,0,2.774-0.612,3.639-1.152C29.18,54.374,30,54,31,54v-2
		c-2,0-2.771,0.612-3.635,1.152C26.607,53.626,26.103,54,24.79,54z"/>
	<path d="M1,39c1,0,1.705,0.374,2.462,0.848C4.327,40.388,5.099,41,6.985,41c1.887,0,2.866-0.612,3.73-1.152
		C11.474,39.374,12.072,39,13.386,39c1.312,0,1.911,0.374,2.669,0.848C16.919,40.388,17.897,41,19.783,41
		c1.888,0,2.774-0.612,3.639-1.152C24.18,39.374,25,39,26,39v-2c-2,0-2.771,0.612-3.635,1.152C21.607,38.626,21.103,39,19.79,39
		c-1.312,0-1.904-0.374-2.661-0.848C16.264,37.612,15.298,37,13.412,37c-1.887,0-2.84,0.612-3.705,1.152
		C8.949,38.626,8.402,39,7.089,39c-1.312,0-1.808-0.374-2.566-0.848C3.659,37.612,2,37,1,37V39z"/>
</g>
</svg>