<?xml version="1.0" encoding="iso-8859-1"?>
<!-- Uploaded to: SVG Repo, www.svgrepo.com, Generator: SVG Repo Mixer Tools -->
<svg fill="#000000" height="800px" width="800px" version="1.1" id="Layer_1" xmlns="http://www.w3.org/2000/svg" xmlns:xlink="http://www.w3.org/1999/xlink" 
	 viewBox="0 0 512 512" xml:space="preserve">
<g>
	<g>
		<path d="M503.83,158.071H8.17c-4.512,0-8.17,3.658-8.17,8.17s3.658,8.17,8.17,8.17h495.66c4.512,0,8.17-3.658,8.17-8.17
			S508.342,158.071,503.83,158.071z"/>
	</g>
</g>
<g>
	<g>
		<path d="M503.83,288.794H351.319c-4.512,0-8.17,3.658-8.17,8.17s3.658,8.17,8.17,8.17H503.83c4.512,0,8.17-3.658,8.17-8.17
			S508.342,288.794,503.83,288.794z"/>
	</g>
</g>
<g>
	<g>
		<path d="M384,223.432H106.213c-4.512,0-8.17,3.658-8.17,8.17s3.658,8.17,8.17,8.17H384c4.512,0,8.17-3.658,8.17-8.17
			S388.512,223.432,384,223.432z"/>
	</g>
</g>
<g>
	<g>
		<path d="M318.638,288.794h-32.681c-4.512,0-8.17,3.658-8.17,8.17s3.658,8.17,8.17,8.17h32.681c4.512,0,8.17-3.658,8.17-8.17
			S323.15,288.794,318.638,288.794z"/>
	</g>
</g>
<g>
	<g>
		<path d="M503.83,321.475H384c-4.512,0-8.17,3.658-8.17,8.17s3.658,8.17,8.17,8.17h119.83c4.512,0,8.17-3.658,8.17-8.17
			S508.342,321.475,503.83,321.475z"/>
	</g>
</g>
<g>
	<g>
		<path d="M471.149,452.198H324.085c-4.512,0-8.17,3.658-8.17,8.17c0,4.512,3.658,8.17,8.17,8.17h147.064
			c4.512,0,8.17-3.658,8.17-8.17C479.319,455.857,475.661,452.198,471.149,452.198z"/>
	</g>
</g>
<g>
	<g>
		<path d="M384,190.752H8.17c-4.512,0-8.17,3.658-8.17,8.17s3.658,8.17,8.17,8.17H384c4.512,0,8.17-3.658,8.17-8.17
			S388.512,190.752,384,190.752z"/>
	</g>
</g>
<g>
	<g>
		<path d="M503.83,190.752h-87.149c-4.512,0-8.17,3.658-8.17,8.17s3.658,8.17,8.17,8.17h87.149c4.512,0,8.17-3.658,8.17-8.17
			S508.342,190.752,503.83,190.752z"/>
	</g>
</g>
<g>
	<g>
		<path d="M503.83,354.156H258.723c-31.536,0-57.191-25.656-57.191-57.192c0-22.526-18.325-40.851-40.851-40.851H8.17
			c-4.512,0-8.17,3.658-8.17,8.17s3.658,8.17,8.17,8.17h152.511c13.516,0,24.511,10.995,24.511,24.511
			c0,40.546,32.986,73.532,73.532,73.532H503.83c4.512,0,8.17-3.658,8.17-8.17S508.342,354.156,503.83,354.156z"/>
	</g>
</g>
<g>
	<g>
		<path d="M503.836,386.723l-157.964-0.136c-13.688,0-25.26,9.227-28.824,21.787H204.255c-4.512,0-8.17,3.658-8.17,8.17
			s3.658,8.17,8.17,8.17h119.83c4.512,0,8.17-3.658,8.17-8.17c0-7.509,6.108-13.617,13.61-13.617l157.957,0.136
			c4.516,0,8.173-3.654,8.177-8.164C512.003,390.388,508.348,386.727,503.836,386.723z"/>
	</g>
</g>
<g>
	<g>
		<path d="M73.532,223.432H8.17c-4.512,0-8.17,3.658-8.17,8.17s3.658,8.17,8.17,8.17h65.362c4.512,0,8.17-3.658,8.17-8.17
			S78.044,223.432,73.532,223.432z"/>
	</g>
</g>
<g>
	<g>
		<path d="M171.574,365.049c-4.512,0-8.17,3.658-8.17,8.17v35.155h-49.021V373.22c0-4.512-3.658-8.17-8.17-8.17
			s-8.17,3.658-8.17,8.17v35.155h-16.34V373.22c0-4.512-3.658-8.17-8.17-8.17s-8.17,3.658-8.17,8.17v35.155h-16.34V373.22
			c0-4.512-3.658-8.17-8.17-8.17s-8.17,3.658-8.17,8.17v35.155H8.17c-4.512,0-8.17,3.658-8.17,8.17s3.658,8.17,8.17,8.17h24.511
			v79.115c0,4.512,3.658,8.17,8.17,8.17s8.17-3.658,8.17-8.17v-79.115h16.34v79.115c0,4.512,3.658,8.17,8.17,8.17
			s8.17-3.658,8.17-8.17v-79.115h16.34v79.115c0,4.512,3.658,8.17,8.17,8.17s8.17-3.658,8.17-8.17v-79.115h49.021v79.115
			c0,4.512,3.658,8.17,8.17,8.17s8.17-3.658,8.17-8.17V373.22C179.745,368.708,176.087,365.049,171.574,365.049z"/>
	</g>
</g>
<g>
	<g>
		<path d="M291.404,452.198h-87.149c-4.512,0-8.17,3.658-8.17,8.17c0,4.512,3.658,8.17,8.17,8.17h87.149
			c4.512,0,8.17-3.658,8.17-8.17C299.574,455.857,295.916,452.198,291.404,452.198z"/>
	</g>
</g>
<g>
	<g>
		<path d="M476.596,70.922h-128c-19.521,0-35.404,15.883-35.404,35.404s15.883,35.404,35.404,35.404h128
			c19.521,0,35.404-15.883,35.404-35.404S496.117,70.922,476.596,70.922z M476.596,125.39h-128
			c-10.511,0-19.064-8.553-19.064-19.064c0-10.511,8.553-19.064,19.064-19.064h128c10.511,0,19.064,8.553,19.064,19.064
			C495.66,116.837,487.107,125.39,476.596,125.39z"/>
	</g>
</g>
<g>
	<g>
		<path d="M272.34,27.234h-55.42C213.223,11.638,199.179,0,182.468,0H35.404C15.883,0,0,15.883,0,35.404
			c0,19.521,15.883,35.404,35.404,35.404h55.42c3.697,15.596,17.741,27.234,34.452,27.234h92.596c4.512,0,8.17-3.658,8.17-8.17
			c0-4.512-3.658-8.17-8.17-8.17h-92.596c-10.511,0-19.064-8.553-19.064-19.064c0-4.512-3.658-8.17-8.17-8.17H35.404
			c-10.511,0-19.064-8.553-19.064-19.064c0-10.511,8.553-19.064,19.064-19.064h147.064c10.511,0,19.064,8.553,19.064,19.064
			c0,4.512,3.658,8.17,8.17,8.17h62.638c10.511,0,19.064,8.553,19.064,19.064s-8.553,19.064-19.064,19.064h-21.787
			c-4.512,0-8.17,3.658-8.17,8.17c0,4.512,3.658,8.17,8.17,8.17h21.787c19.521,0,35.404-15.883,35.404-35.404
			S291.862,27.234,272.34,27.234z"/>
	</g>
</g>
</svg>