<?xml version="1.0" encoding="iso-8859-1"?>
<!-- Uploaded to: SVG Repo, www.svgrepo.com, Generator: SVG Repo Mixer Tools -->
<svg fill="#000000" height="800px" width="800px" version="1.1" id="Layer_1" xmlns="http://www.w3.org/2000/svg" xmlns:xlink="http://www.w3.org/1999/xlink" 
	 viewBox="0 0 512 512" xml:space="preserve">
<g>
	<g>
		<path d="M248.743,45.482c-5.638-1.87-11.63,1.162-13.495,6.748l-10.671,32.013c-1.866,5.591,1.157,11.635,6.742,13.5
			c1.126,0.375,2.261,0.552,3.376,0.552c4.471,0,8.629-2.829,10.119-7.3l10.671-32.013C257.35,53.392,254.328,47.347,248.743,45.482
			z"/>
	</g>
</g>
<g>
	<g>
		<path d="M216.729,152.192c-5.627-1.876-11.64,1.167-13.495,6.748l-10.671,32.013c-1.866,5.591,1.157,11.635,6.742,13.5
			c1.125,0.375,2.261,0.552,3.376,0.552c4.471,0,8.629-2.829,10.119-7.3l10.671-32.013
			C225.337,160.102,222.315,154.058,216.729,152.192z"/>
	</g>
</g>
<g>
	<g>
		<path d="M184.716,248.232c-5.638-1.891-11.63,1.162-13.495,6.748l-10.671,32.012c-1.866,5.599,1.157,11.643,6.742,13.495
			c1.126,0.375,2.261,0.552,3.376,0.552c4.471,0,8.629-2.822,10.119-7.292l10.671-32.014
			C193.324,256.141,190.302,250.097,184.716,248.232z"/>
	</g>
</g>
<g>
	<g>
		<path d="M355.453,13.469c-5.648-1.881-11.63,1.157-13.495,6.748L331.287,52.23c-1.866,5.591,1.157,11.635,6.742,13.5
			c1.125,0.375,2.261,0.552,3.376,0.552c4.471,0,8.629-2.829,10.119-7.3l10.671-32.013C364.06,21.379,361.038,15.334,355.453,13.469
			z"/>
	</g>
</g>
<g>
	<g>
		<path d="M323.44,120.179c-5.638-1.891-11.63,1.162-13.495,6.748l-10.671,32.013c-1.866,5.591,1.157,11.635,6.742,13.5
			c1.126,0.375,2.261,0.552,3.376,0.552c4.471,0,8.629-2.829,10.119-7.3l10.671-32.013
			C332.047,128.089,329.025,122.045,323.44,120.179z"/>
	</g>
</g>
<g>
	<g>
		<path d="M291.427,216.219c-5.648-1.876-11.64,1.157-13.495,6.748l-10.671,32.013c-1.866,5.591,1.157,11.635,6.742,13.5
			c1.126,0.375,2.261,0.552,3.376,0.552c4.471,0,8.629-2.829,10.119-7.3l10.671-32.013
			C300.034,224.128,297.012,218.084,291.427,216.219z"/>
	</g>
</g>
<g>
	<g>
		<path d="M430.15,109.508c-5.648-1.87-11.63,1.162-13.495,6.748l-10.671,32.013c-1.866,5.591,1.157,11.635,6.742,13.5
			c1.126,0.375,2.261,0.552,3.376,0.552c4.471,0,8.629-2.829,10.119-7.3l10.671-32.013
			C438.758,117.418,435.736,111.374,430.15,109.508z"/>
	</g>
</g>
<g>
	<g>
		<path d="M398.137,216.219c-5.638-1.876-11.63,1.157-13.495,6.748l-10.671,32.013c-1.866,5.591,1.157,11.635,6.742,13.5
			c1.126,0.375,2.261,0.552,3.376,0.552c4.471,0,8.629-2.829,10.119-7.3l10.671-32.013
			C406.745,224.128,403.723,218.084,398.137,216.219z"/>
	</g>
</g>
<g>
	<g>
		<path d="M511.006,366.701c-2.376-5.239-8.66-7.534-13.954-5.375c-0.188,0.083-20.529,7.93-77.573-11.078
			c-43.341-14.443-62.005-2.034-78.449,8.918c-9.546,6.37-17.799,11.869-31.638,11.869c-19.289,0-31.315-4.814-44.06-9.908
			c-14.047-5.62-28.584-11.435-51.98-11.435c-18.018,0-31.242,5.171-42.903,9.736c-18.664,7.292-34.764,13.586-71.102,1.49
			c-68.268-22.77-93.622-0.094-96.29,2.574c-4.074,4.062-4.043,10.504-0.115,14.714c3.95,4.197,10.629,4.377,14.954,0.615
			c0.198-0.167,19.31-16.134,74.697,2.334c43.685,14.555,65.975,5.836,85.629-1.844c10.869-4.265,21.133-8.277,35.129-8.277
			c19.289,0,31.315,4.815,44.06,9.913c14.047,5.614,28.584,11.429,51.979,11.429c20.3,0,32.618-8.209,43.476-15.452
			c14.735-9.827,26.365-17.593,59.858-6.44c64.933,21.644,89.297,12.221,93.518,10.098
			C511.381,378.018,513.382,371.924,511.006,366.701z"/>
	</g>
</g>
<g>
	<g>
		<path d="M511.006,420.056c-2.376-5.239-8.66-7.524-13.954-5.374c-0.188,0.083-20.529,7.92-77.573-11.078
			c-43.341-14.454-62.005-2.034-78.449,8.918c-9.546,6.37-17.799,11.869-31.638,11.869c-19.289,0-31.315-4.814-44.06-9.908
			c-14.047-5.62-28.584-11.435-51.98-11.435c-18.018,0-31.242,5.171-42.903,9.736c-18.664,7.292-34.764,13.596-71.102,1.49
			c-68.268-22.762-93.622-0.094-96.29,2.574c-4.074,4.062-4.043,10.504-0.115,14.714c3.95,4.197,10.629,4.377,14.954,0.615
			c0.198-0.156,19.31-16.124,74.697,2.334c43.685,14.555,65.975,5.836,85.629-1.844c10.869-4.265,21.133-8.277,35.129-8.277
			c19.289,0,31.315,4.815,44.06,9.913c14.047,5.614,28.584,11.429,51.979,11.429c20.3,0,32.618-8.209,43.476-15.452
			c14.735-9.827,26.365-17.583,59.858-6.44c64.933,21.644,89.297,12.211,93.518,10.098
			C511.381,431.373,513.382,425.279,511.006,420.056z"/>
	</g>
</g>
<g>
	<g>
		<path d="M511.006,473.411c-2.376-5.229-8.66-7.542-13.954-5.374c-0.188,0.083-20.529,7.93-77.573-11.078
			c-43.341-14.443-62.005-2.034-78.449,8.918c-9.546,6.37-17.799,11.869-31.638,11.869c-19.289,0-31.315-4.814-44.06-9.908
			c-14.047-5.62-28.584-11.435-51.98-11.435c-18.018,0-31.242,5.172-42.903,9.736c-18.664,7.292-34.764,13.586-71.102,1.49
			c-68.268-22.77-93.622-0.094-96.29,2.574c-4.074,4.062-4.043,10.504-0.115,14.714c3.95,4.197,10.629,4.377,14.954,0.615
			c0.198-0.167,19.31-16.134,74.697,2.334c43.685,14.555,65.975,5.825,85.629-1.844c10.869-4.265,21.133-8.277,35.129-8.277
			c19.289,0,31.315,4.815,44.06,9.913c14.047,5.614,28.584,11.429,51.979,11.429c20.3,0,32.618-8.209,43.476-15.452
			c14.735-9.827,26.365-17.593,59.858-6.44c64.933,21.655,89.297,12.211,93.518,10.098
			C511.381,484.728,513.382,478.635,511.006,473.411z"/>
	</g>
</g>
</svg>