<svg xmlns="http://www.w3.org/2000/svg" width="214.15" height="189.917" viewBox="0 0 214.15 189.917">
  <g id="SVGRepo_tracerCarrier" transform="translate(1.5 1.5)">
    <g id="Group_17" data-name="Group 17" transform="translate(0 0)">
      <path id="Path_12" data-name="Path 12" d="M159.992,69.068l-15.8-11.739a3.093,3.093,0,0,0-3.582.007L124.95,69.071a1.28,1.28,0,1,0,1.535,2.048l15.66-11.734a.453.453,0,0,1,.521,0l15.8,11.739a1.28,1.28,0,0,0,1.527-2.055Z" transform="translate(-35.113 -48.078)" fill="none" stroke="#ca944c" stroke-linecap="round" stroke-linejoin="round" stroke-width="2"/>
      <path id="Path_13" data-name="Path 13" d="M208.593,127.862H166.074c-2.343,0-2.162-1.865-2.162-1.865V73.917s-.117-1.3,1.48-1.3h6.018a4.584,4.584,0,0,0,4.6-2.84,4.3,4.3,0,0,0-1.81-4.951L162.617,56.17a1.92,1.92,0,0,1-.644-1.405V35.232a5.772,5.772,0,0,0-5.879-5.643h-13.76a5.772,5.772,0,0,0-5.879,5.643V35.7c0,1.084-.785.329-.785.329l-25.025-18.7a6.82,6.82,0,0,0-7.938,0l-63.551,47.5a4.3,4.3,0,0,0-1.81,4.951,4.584,4.584,0,0,0,4.6,2.84h6.467c1.141,0,1.031,1.18,1.031,1.18v52.784s.184,1.283-1.8,1.283H2.556A2.514,2.514,0,0,0,0,130.316v70.2a2.514,2.514,0,0,0,2.556,2.454H5.113a2.514,2.514,0,0,0,2.556-2.454v-62.84a2.514,2.514,0,0,1,2.556-2.454h190.7a2.514,2.514,0,0,1,2.556,2.454v62.84a2.514,2.514,0,0,0,2.556,2.454h2.556a2.514,2.514,0,0,0,2.556-2.454v-70.2A2.514,2.514,0,0,0,208.593,127.862Zm-64.47-90.473a.443.443,0,0,1,.446-.439h9.169a.536.536,0,0,1,.566.562V48.236c0,.675-.39.34-.39.34l-9.55-7.611a.7.7,0,0,1-.242-.495S144.123,38.159,144.123,37.389ZM97.05,109.624c0-.043-.035-4.426,2.624-7.068,1.512-1.5,3.666-2.232,6.587-2.232,9.5,0,9.993,7.833,10,9.379-.014,1.092-.026,2.879-.026,3.971l0,12.719s.085,1.468-1.8,1.468h-16c-1.369,0-1.3-1.009-1.3-1.009V113.675C97.123,112.551,97.09,110.733,97.05,109.624Zm28.592,18.238a1.535,1.535,0,0,1-1.743-1.525V113.675c0-1.067.012-2.813.025-3.88A17.808,17.808,0,0,0,118.9,97.553c-3.133-3.045-7.384-4.589-12.636-4.589-5.038,0-9.11,1.507-12.1,4.478-4.9,4.866-4.8,11.675-4.773,12.436.037,1.022.068,2.761.068,3.8v13.218a.972.972,0,0,1-1.113.969H58.635a1.336,1.336,0,0,1-1.526-1.346V70.9c0-2.841-2.295-4.786-5.049-5.588-.774-.225-.016-.789-.016-.789L105.456,24.6a1.638,1.638,0,0,1,2.382-.044l53.26,39.8s1.258.782-.079.99a5.649,5.649,0,0,0-4.776,5.544v55.062s.159,1.9-2.1,1.9Z" transform="translate(0 -16.054)" fill="none" stroke="#ca944c" stroke-linecap="round" stroke-linejoin="round" stroke-width="3"/>
      <path id="Path_14" data-name="Path 14" d="M232.764,288.037H209.846a14.375,14.375,0,0,0-4.772.822l-14.469,6.4a2.7,2.7,0,0,1-2.8-.187l-7.238-7.738c-.519-.555-2.234-.924-3.811-.82l-20.145,1.331c-1.578.1-3.085-.284-3.35-.862l-4.148-9.062c-.265-.578-1.282-.672-2.26-.207l-36.532,17.349a2.349,2.349,0,0,1-2.625-.176L95.719,280.436a2.564,2.564,0,0,0-2.742-.211l-18.746,8.007a14.918,14.918,0,0,1-4.81.81H44.512c-1.6,0-2.914.48-2.914,1.067v.427c0,.587,1.311,1.067,2.914,1.067H72.64a14.917,14.917,0,0,0,4.81-.81l12.538-5.355a2.564,2.564,0,0,1,2.742.211l12.215,14.74a2.349,2.349,0,0,0,2.625.176L142.6,283.926c.979-.465,2-.371,2.26.207l2.668,5.83c.265.579,1.772.967,3.35.863l21.2-1.4c1.577-.1,3.292.265,3.811.82l9.337,9.983a2.7,2.7,0,0,0,2.8.187l20.332-9a14.385,14.385,0,0,1,4.772-.822h19.627c1.6,0,2.914-.48,2.914-1.067V289.1C235.678,288.517,234.367,288.037,232.764,288.037Z" transform="translate(-32.725 -116)" fill="none" stroke="#ca944c" stroke-linecap="round" stroke-linejoin="round" stroke-width="2"/>
    </g>
  </g>
</svg>
