<!DOCTYPE svg PUBLIC "-//W3C//DTD SVG 1.1//EN" "http://www.w3.org/Graphics/SVG/1.1/DTD/svg11.dtd">
<!-- Uploaded to: SVG Repo, www.svgrepo.com, Transformed by: SVG Repo Mixer Tools -->
<svg fill="#000000" height="64px" width="64px" version="1.1" id="Layer_1" xmlns="http://www.w3.org/2000/svg" xmlns:xlink="http://www.w3.org/1999/xlink" viewBox="0 0 512.002 512.002" xml:space="preserve">
<g id="SVGRepo_bgCarrier" stroke-width="0"/>
<g id="SVGRepo_tracerCarrier" stroke-linecap="round" stroke-linejoin="round"/>
<g id="SVGRepo_iconCarrier"> <g> <g> <g> <path d="M3.797,408.168c3.917,2.611,9.216,1.553,11.836-2.364l34.952-52.428l13.816-4.603c30.003-10.01,63.061-10.01,93.065,0 h0.009l13.806,4.602l6.927,10.389l28.026,42.04c0.035,0.053,0.077,0.097,0.113,0.148c0.152,0.217,0.31,0.428,0.479,0.627 c0.084,0.099,0.173,0.192,0.261,0.286c0.136,0.147,0.275,0.289,0.419,0.425c0.098,0.092,0.197,0.181,0.298,0.267 c0.153,0.13,0.31,0.252,0.47,0.37c0.098,0.072,0.193,0.147,0.293,0.214c0.253,0.17,0.512,0.329,0.779,0.47 c0.068,0.036,0.138,0.063,0.207,0.097c0.214,0.106,0.431,0.205,0.653,0.292c0.111,0.043,0.223,0.08,0.335,0.119 c0.189,0.066,0.38,0.125,0.574,0.178c0.115,0.031,0.229,0.061,0.345,0.087c0.214,0.048,0.429,0.086,0.646,0.118 c0.093,0.014,0.184,0.032,0.277,0.042c0.312,0.035,0.626,0.056,0.941,0.057c0.006,0,0.013,0.001,0.019,0.001 c0.021,0,0.042-0.004,0.063-0.005c0.342-0.002,0.684-0.03,1.025-0.073c0.08-0.01,0.158-0.021,0.238-0.033 c0.739-0.116,1.468-0.331,2.172-0.649c0.065-0.029,0.129-0.059,0.194-0.09c0.353-0.17,0.701-0.356,1.036-0.579 c0.832-0.557,1.527-1.239,2.093-1.999c1.1-1.473,1.692-3.252,1.703-5.06c0.004-0.705-0.088-1.411-0.261-2.106 c-0.231-0.927-0.612-1.833-1.171-2.674l-53.188-79.782l16.414-45.954l34.607-19.774l13.03,26.061 c1.519,3.038,4.642,4.89,8.081,4.71c3.396-0.179,6.357-2.347,7.552-5.53l17.604-46.959l17.604,46.959 c1.195,3.183,4.156,5.35,7.552,5.53c0.145,0.009,0.299,0.009,0.444,0.009c3.217,0,6.187-1.818,7.637-4.719l13.03-26.061 l34.603,19.772l47.624,133.346c1.246,3.49,4.531,5.666,8.038,5.666c0.956,0,1.92-0.162,2.867-0.503 c4.437-1.587,6.75-6.468,5.171-10.906l-35.503-99.408l9.314-6.209l114.517,114.526c3.337,3.328,8.73,3.328,12.066,0 c3.337-3.336,3.337-8.738,0-12.075L390.033,275.564c-2.876-2.859-7.381-3.319-10.769-1.067l-11.579,7.723l-7.258-20.322 c-0.002-0.006-0.003-0.012-0.005-0.018l-18.42-51.571l-18.231-51.046c-0.606-1.698-1.713-3.113-3.12-4.102 c-1.407-0.992-3.114-1.559-4.918-1.559h-5.842c-18.07-13.609-10.172-34.712-5.892-43.221 c11.563-2.466,20.267-12.757,20.267-25.045c0-6.554-2.475-12.535-6.528-17.067c4.053-4.531,6.528-10.513,6.528-17.067 c0-11.418-7.518-21.12-17.86-24.405c-3.362-15.309-17.033-26.795-33.34-26.795c-16.307,0-29.978,11.486-33.34,26.795 c-8.004,2.543-14.31,8.926-16.759,16.973c-10.505,3.191-18.167,12.962-18.167,24.499c0,11.93,8.209,21.982,19.26,24.806 c4.28,13.114,14.41,50.305-4.207,60.527h-6.518c-1.805,0-3.511,0.568-4.918,1.559c-1.407,0.99-2.514,2.404-3.12,4.102 l-30.159,84.442l-6.492,18.176c0,0.001-0.001,0.003-0.001,0.004l-13.201,36.961l-37.409-56.114 c-1.187-1.779-3.036-2.891-5.049-3.336c-1.342-0.297-2.758-0.297-4.101,0c-2.014,0.445-3.862,1.557-5.049,3.336l-102.4,153.6 C-1.178,400.257-0.119,405.556,3.797,408.168z M311.433,231.527c-2.031-1.169-4.454-1.442-6.707-0.759 c-2.244,0.683-4.105,2.253-5.163,4.352l-8.311,16.623l-18.722-49.937c-1.254-3.328-4.437-5.538-7.996-5.538 c-3.558,0-6.741,2.21-7.996,5.538l-18.722,49.937l-8.311-16.623c-1.058-2.099-2.918-3.669-5.163-4.352 c-2.244-0.683-4.676-0.41-6.707,0.759l-25.153,14.368l26.869-75.224h90.368l26.865,75.222L311.433,231.527z M238.335,82.203 c-1.28-3.26-4.429-5.402-7.936-5.402c-4.702,0-8.533-3.831-8.533-8.533s3.831-8.533,8.533-8.533c4.71,0,8.533-3.823,8.533-8.533 c0-4.702,3.831-8.533,8.533-8.533c4.71,0,8.533-3.823,8.533-8.533c0-9.412,7.654-17.067,17.067-17.067 c9.412,0,17.067,7.654,17.067,17.067c0,4.71,3.823,8.533,8.533,8.533c4.702,0,8.533,3.831,8.533,8.533 c0,4.702-3.831,8.533-8.533,8.533c-4.71,0-8.533,3.823-8.533,8.533s3.823,8.533,8.533,8.533c4.702,0,8.533,3.831,8.533,8.533 c0,4.702-3.831,8.533-8.533,8.533c-2.944,0-5.675,1.519-7.236,4.011c-7.62,12.194-15.539,36.062-4.164,55.723h-44.732 C255.735,127.19,239.231,84.464,238.335,82.203z M65.857,330.467l45.076-67.614l39.712,59.568 c0.007,0.011,0.012,0.022,0.019,0.033l5.342,8.012C126.69,322.124,95.173,322.124,65.857,330.467z"/> <path d="M128,426.668c-5.76,0-11.085,1.911-15.36,5.137c-4.83-6.426-11.861-11.093-19.968-12.877 c-3.285-10.342-12.988-17.86-24.405-17.86c-11.127,0-20.617,7.134-24.141,17.067h-9.992C15.309,418.134,0,433.443,0,452.268 c0,4.71,3.823,8.533,8.533,8.533s8.533-3.823,8.533-8.533c0-9.412,7.654-17.067,17.067-17.067H51.2 c4.71,0,8.533-3.823,8.533-8.533c0-4.702,3.831-8.533,8.533-8.533s8.533,3.831,8.533,8.533c0,4.71,3.823,8.533,8.533,8.533 c9.412,0,17.067,7.654,17.067,17.067c0,4.71,3.823,8.533,8.533,8.533s8.533-3.823,8.533-8.533c0-4.702,3.831-8.533,8.533-8.533 s8.533,3.831,8.533,8.533c0,4.71,3.823,8.533,8.533,8.533c4.71,0,8.533-3.823,8.533-8.533 C153.6,438.154,142.114,426.668,128,426.668z"/> <path d="M349.867,443.734c4.71,0,8.533-3.823,8.533-8.533c0-14.114-11.486-25.6-25.6-25.6c-5.76,0-11.085,1.911-15.36,5.137 c-4.83-6.426-11.861-11.093-19.968-12.877c-3.285-10.342-12.988-17.86-24.405-17.86c-11.529,0-21.291,7.654-24.491,18.142 c-10.513,3.191-18.176,12.971-18.176,24.508c0,14.123,11.486,25.617,25.6,25.617c4.71,0,8.533-3.823,8.533-8.533 s-3.823-8.533-8.533-8.533c-4.702,0-8.533-3.84-8.533-8.55c0-4.565,3.601-8.303,8.107-8.525c4.745,0.068,8.96-3.678,8.96-8.525 c0-4.702,3.831-8.533,8.533-8.533c4.702,0,8.533,3.831,8.533,8.533c0,4.71,3.823,8.533,8.533,8.533 c9.412,0,17.067,7.654,17.067,17.067c0,4.71,3.823,8.533,8.533,8.533s8.533-3.823,8.533-8.533c0-4.702,3.831-8.533,8.533-8.533 c4.702,0,8.533,3.831,8.533,8.533C341.333,439.911,345.156,443.734,349.867,443.734z"/> <path d="M256,469.334c-5.76,0-11.085,1.911-15.36,5.137c-4.83-6.426-11.861-11.093-19.968-12.877 c-3.285-10.342-12.988-17.86-24.405-17.86c-11.529,0-21.291,7.654-24.491,18.142c-10.513,3.191-18.176,12.971-18.176,24.508 c0,14.123,11.486,25.617,25.6,25.617c4.71,0,8.533-3.823,8.533-8.533s-3.823-8.533-8.533-8.533c-4.702,0-8.533-3.84-8.533-8.55 c0-4.565,3.601-8.303,8.107-8.525c4.736,0.162,8.96-3.669,8.96-8.525c0-4.702,3.831-8.533,8.533-8.533 c4.702,0,8.533,3.831,8.533,8.533c0,4.71,3.823,8.533,8.533,8.533c9.412,0,17.067,7.654,17.067,17.067 c0,4.71,3.823,8.533,8.533,8.533s8.533-3.823,8.533-8.533c0-4.702,3.831-8.533,8.533-8.533c4.702,0,8.533,3.831,8.533,8.533 c0,4.71,3.823,8.533,8.533,8.533c4.71,0,8.533-3.823,8.533-8.533C281.6,480.82,270.114,469.334,256,469.334z"/> <path d="M443.733,469.334c-5.76,0-11.085,1.911-15.36,5.137c-4.83-6.426-11.861-11.093-19.968-12.877 c-3.285-10.342-12.988-17.86-24.405-17.86c-11.529,0-21.291,7.654-24.491,18.142c-10.513,3.191-18.176,12.971-18.176,24.508 c0,14.123,11.486,25.617,25.6,25.617c4.71,0,8.533-3.823,8.533-8.533s-3.823-8.533-8.533-8.533c-4.702,0-8.533-3.84-8.533-8.55 c0-4.565,3.601-8.303,8.107-8.525c4.745,0.162,8.96-3.669,8.96-8.525c0-4.702,3.831-8.533,8.533-8.533 c4.702,0,8.533,3.831,8.533,8.533c0,4.71,3.823,8.533,8.533,8.533c9.412,0,17.067,7.654,17.067,17.067 c0,4.71,3.823,8.533,8.533,8.533s8.533-3.823,8.533-8.533c0-4.702,3.831-8.533,8.533-8.533c4.702,0,8.533,3.831,8.533,8.533 c0,4.71,3.823,8.533,8.533,8.533s8.533-3.823,8.533-8.533C469.333,480.82,457.847,469.334,443.733,469.334z"/> <path d="M486.4,435.201c-5.76,0-11.085,1.911-15.36,5.137c-4.83-6.426-11.861-11.093-19.968-12.877 c-3.285-10.342-12.988-17.86-24.405-17.86c-14.114,0-25.591,11.477-25.6,25.591v0.009c0,4.71,3.823,8.533,8.533,8.533 s8.533-3.823,8.533-8.533c0-4.702,3.831-8.533,8.533-8.533s8.533,3.831,8.533,8.533c0,4.71,3.823,8.533,8.533,8.533 c9.412,0,17.067,7.654,17.067,17.067c0,4.71,3.823,8.533,8.533,8.533s8.533-3.823,8.533-8.533c0-4.702,3.831-8.533,8.533-8.533 s8.533,3.831,8.533,8.533c0,4.71,3.823,8.533,8.533,8.533s8.533-3.823,8.533-8.533C512,446.687,500.514,435.201,486.4,435.201z"/> </g> </g> </g> </g>
</svg>